<svg width="658" height="166" viewBox="0 0 658 166" fill="none" xmlns="http://www.w3.org/2000/svg">
<rect width="658" height="166" fill="white"/>
<path d="M132.136 97.504V96.224C132.136 95.328 132.584 94.88 133.48 94.88H138.92C139.816 94.88 140.264 95.328 140.264 96.224V96.736C140.264 98.3573 140.584 99.4667 141.224 100.064C141.864 100.661 143.037 100.96 144.744 100.96H147.752C149.416 100.96 150.568 100.64 151.208 100C151.891 99.36 152.232 98.1653 152.232 96.416V95.648C152.232 94.4107 151.72 93.472 150.696 92.832C149.715 92.1493 148.477 91.744 146.984 91.616C145.491 91.488 143.869 91.2533 142.12 90.912C140.413 90.528 138.813 90.0587 137.32 89.504C135.827 88.9067 134.568 87.776 133.544 86.112C132.563 84.4053 132.072 82.2293 132.072 79.584V77.344C132.072 74.016 133.011 71.4347 134.888 69.6C136.765 67.7653 139.368 66.848 142.696 66.848H149.096C152.467 66.848 155.091 67.7653 156.968 69.6C158.845 71.4347 159.784 74.016 159.784 77.344V78.56C159.784 79.456 159.336 79.904 158.44 79.904H153C152.104 79.904 151.656 79.456 151.656 78.56V78.176C151.656 76.512 151.336 75.3813 150.696 74.784C150.056 74.1867 148.883 73.888 147.176 73.888H144.68C142.931 73.888 141.736 74.2293 141.096 74.912C140.499 75.552 140.2 76.832 140.2 78.752V79.968C140.2 81.9733 141.949 83.1253 145.448 83.424C149.075 83.7227 152.296 84.448 155.112 85.6C156.605 86.24 157.843 87.392 158.824 89.056C159.848 90.6773 160.36 92.768 160.36 95.328V97.504C160.36 100.832 159.421 103.413 157.544 105.248C155.667 107.083 153.064 108 149.736 108H142.76C139.432 108 136.829 107.083 134.952 105.248C133.075 103.413 132.136 100.832 132.136 97.504ZM178.86 100.96H183.404C184.769 100.96 185.729 100.683 186.284 100.128C186.881 99.5307 187.18 98.5493 187.18 97.184V77.664C187.18 76.2987 186.881 75.3387 186.284 74.784C185.729 74.1867 184.769 73.888 183.404 73.888H178.86C177.495 73.888 176.535 74.1867 175.98 74.784C175.425 75.3387 175.148 76.2987 175.148 77.664V97.184C175.148 98.5493 175.425 99.5307 175.98 100.128C176.535 100.683 177.495 100.96 178.86 100.96ZM184.748 108H177.58C174.209 108 171.607 107.104 169.772 105.312C167.937 103.52 167.02 100.939 167.02 97.568V77.28C167.02 73.9093 167.937 71.328 169.772 69.536C171.607 67.744 174.209 66.848 177.58 66.848H184.748C188.119 66.848 190.721 67.744 192.556 69.536C194.391 71.328 195.308 73.9093 195.308 77.28V97.568C195.308 100.939 194.391 103.52 192.556 105.312C190.721 107.104 188.119 108 184.748 108ZM218.077 108H212.637C211.741 108 211.293 107.552 211.293 106.656V92.96L199.581 68.256C199.41 67.872 199.41 67.552 199.581 67.296C199.794 66.9973 200.093 66.848 200.477 66.848H207.26C207.943 66.848 208.455 67.296 208.797 68.192L215.197 83.744H215.645L221.917 68.192C222.215 67.296 222.727 66.848 223.453 66.848H230.237C230.663 66.848 230.962 66.976 231.132 67.232C231.346 67.488 231.346 67.8293 231.132 68.256L219.421 92.96V106.656C219.421 107.552 218.973 108 218.077 108ZM244.867 101.216H252.035C253.443 101.216 254.446 100.939 255.043 100.384C255.683 99.7867 256.003 98.8267 256.003 97.504V93.792C256.003 92.4693 255.683 91.5307 255.043 90.976C254.403 90.4213 253.358 90.144 251.907 90.144H244.867C244.398 90.144 244.163 90.3787 244.163 90.848V100.512C244.163 100.981 244.398 101.216 244.867 101.216ZM244.867 83.552H251.395C252.76 83.552 253.763 83.2747 254.403 82.72C255.043 82.1227 255.363 81.1627 255.363 79.84V77.344C255.363 76.0213 255.043 75.0827 254.403 74.528C253.806 73.9307 252.824 73.632 251.459 73.632H244.867C244.398 73.632 244.163 73.8667 244.163 74.336V82.848C244.163 83.3173 244.398 83.552 244.867 83.552ZM236.035 106.656V68.192C236.035 67.296 236.483 66.848 237.379 66.848H252.739C256.11 66.848 258.712 67.744 260.547 69.536C262.382 71.328 263.299 73.888 263.299 77.216V79.84C263.299 83.4667 261.614 85.8133 258.243 86.88C259.95 87.136 261.315 87.84 262.339 88.992C263.363 90.1013 263.875 91.7013 263.875 93.792V97.632C263.875 100.96 262.958 103.52 261.123 105.312C259.288 107.104 256.707 108 253.379 108H237.379C236.483 108 236.035 107.552 236.035 106.656ZM293.807 108H272.879C271.983 108 271.535 107.552 271.535 106.656V68.192C271.535 67.296 271.983 66.848 272.879 66.848H293.807C294.66 66.848 295.087 67.296 295.087 68.192V72.544C295.087 73.44 294.66 73.888 293.807 73.888H280.431C279.919 73.888 279.663 74.1227 279.663 74.592V82.912C279.663 83.3813 279.919 83.616 280.431 83.616H291.375C292.271 83.616 292.719 84.064 292.719 84.96V89.312C292.719 90.208 292.271 90.656 291.375 90.656H280.431C279.919 90.656 279.663 90.8907 279.663 91.36V100.256C279.663 100.725 279.919 100.96 280.431 100.96H293.807C294.66 100.96 295.087 101.408 295.087 102.304V106.656C295.087 107.552 294.66 108 293.807 108ZM306.448 108H300.304C299.536 108 299.28 107.552 299.536 106.656L309.648 68.192C309.947 67.296 310.587 66.848 311.568 66.848H320.08C321.147 66.848 321.787 67.296 322 68.192L332.112 106.656C332.368 107.552 332.112 108 331.344 108H325.2C324.731 108 324.411 107.915 324.24 107.744C324.069 107.531 323.941 107.168 323.856 106.656L322.064 99.616H309.584L307.792 106.656C307.707 107.168 307.557 107.531 307.344 107.744C307.173 107.915 306.875 108 306.448 108ZM315.728 74.592L311.12 93.088H320.592L315.984 74.592H315.728ZM344.441 108H339.129C338.233 108 337.785 107.552 337.785 106.656V68.192C337.785 67.296 338.233 66.848 339.129 66.848H343.929C344.825 66.848 345.422 67.1467 345.721 67.744L358.649 92H358.905V68.192C358.905 67.296 359.353 66.848 360.249 66.848H365.561C366.457 66.848 366.905 67.296 366.905 68.192V106.656C366.905 107.552 366.457 108 365.561 108H360.889C359.95 108 359.268 107.573 358.841 106.72L346.041 82.912H345.785V106.656C345.785 107.552 345.337 108 344.441 108ZM374.199 97.504V96.224C374.199 95.328 374.647 94.88 375.543 94.88H380.983C381.879 94.88 382.327 95.328 382.327 96.224V96.736C382.327 98.3573 382.647 99.4667 383.287 100.064C383.927 100.661 385.1 100.96 386.807 100.96H389.815C391.479 100.96 392.631 100.64 393.271 100C393.953 99.36 394.295 98.1653 394.295 96.416V95.648C394.295 94.4107 393.783 93.472 392.759 92.832C391.777 92.1493 390.54 91.744 389.047 91.616C387.553 91.488 385.932 91.2533 384.183 90.912C382.476 90.528 380.876 90.0587 379.383 89.504C377.889 88.9067 376.631 87.776 375.607 86.112C374.625 84.4053 374.135 82.2293 374.135 79.584V77.344C374.135 74.016 375.073 71.4347 376.951 69.6C378.828 67.7653 381.431 66.848 384.759 66.848H391.159C394.529 66.848 397.153 67.7653 399.031 69.6C400.908 71.4347 401.847 74.016 401.847 77.344V78.56C401.847 79.456 401.399 79.904 400.503 79.904H395.063C394.167 79.904 393.719 79.456 393.719 78.56V78.176C393.719 76.512 393.399 75.3813 392.759 74.784C392.119 74.1867 390.945 73.888 389.239 73.888H386.743C384.993 73.888 383.799 74.2293 383.159 74.912C382.561 75.552 382.263 76.832 382.263 78.752V79.968C382.263 81.9733 384.012 83.1253 387.51 83.424C391.137 83.7227 394.359 84.448 397.175 85.6C398.668 86.24 399.905 87.392 400.887 89.056C401.911 90.6773 402.423 92.768 402.423 95.328V97.504C402.423 100.832 401.484 103.413 399.607 105.248C397.729 107.083 395.127 108 391.799 108H384.823C381.495 108 378.892 107.083 377.015 105.248C375.137 103.413 374.199 100.832 374.199 97.504Z" fill="#F96B13"/>
<path d="M433.321 108H432.425C432.084 108 431.913 107.808 431.913 107.424V69.152C431.913 68.8107 431.721 68.64 431.337 68.64H421.481C421.097 68.64 420.905 68.4693 420.905 68.128V67.36C420.905 67.0187 421.097 66.848 421.481 66.848H444.265C444.649 66.848 444.841 67.0187 444.841 67.36V68.128C444.841 68.4693 444.649 68.64 444.265 68.64H434.409C434.025 68.64 433.833 68.8107 433.833 69.152V107.424C433.833 107.808 433.662 108 433.321 108ZM453.293 108H452.397C452.056 108 451.885 107.808 451.885 107.424V67.424C451.885 67.04 452.056 66.848 452.397 66.848H466.797C469.4 66.848 471.469 67.6373 473.005 69.216C474.584 70.7947 475.373 72.9067 475.373 75.552V81.952C475.373 84.3413 474.733 86.304 473.453 87.84C472.173 89.3333 470.445 90.2293 468.269 90.528V90.784L476.141 107.424C476.354 107.808 476.269 108 475.885 108H474.733C474.392 108 474.114 107.808 473.901 107.424L466.093 90.656H454.381C453.997 90.656 453.805 90.8267 453.805 91.168V107.424C453.805 107.808 453.634 108 453.293 108ZM454.381 88.864H466.797C468.93 88.864 470.573 88.2453 471.725 87.008C472.877 85.7707 473.453 84.064 473.453 81.888V75.616C473.453 73.44 472.877 71.7333 471.725 70.496C470.573 69.2587 468.93 68.64 466.797 68.64H454.381C453.997 68.64 453.805 68.8107 453.805 69.152V88.352C453.805 88.6933 453.997 88.864 454.381 88.864ZM505.791 108H486.335C485.993 108 485.823 107.808 485.823 107.424V67.424C485.823 67.04 485.993 66.848 486.335 66.848H505.791C506.175 66.848 506.367 67.0187 506.367 67.36V68.128C506.367 68.4693 506.175 68.64 505.791 68.64H488.319C487.935 68.64 487.743 68.8107 487.743 69.152V85.6C487.743 85.9413 487.935 86.112 488.319 86.112H504.127C504.511 86.112 504.703 86.2827 504.703 86.624V87.392C504.703 87.7333 504.511 87.904 504.127 87.904H488.319C487.935 87.904 487.743 88.0747 487.743 88.416V105.696C487.743 106.037 487.935 106.208 488.319 106.208H505.791C506.175 106.208 506.367 106.379 506.367 106.72V107.488C506.367 107.829 506.175 108 505.791 108ZM518.043 108H517.147C516.806 108 516.635 107.808 516.635 107.424V67.424C516.635 67.04 516.806 66.848 517.147 66.848H518.043C518.256 66.848 518.406 66.9333 518.491 67.104L539.931 103.392H540.187V67.424C540.187 67.04 540.358 66.848 540.699 66.848H541.595C541.936 66.848 542.107 67.04 542.107 67.424V107.424C542.107 107.808 541.936 108 541.595 108H540.955C540.656 108 540.4 107.829 540.187 107.488L518.811 71.328H518.555V107.424C518.555 107.808 518.384 108 518.043 108ZM556.131 106.208H569.891C572.024 106.208 573.667 105.589 574.819 104.352C575.971 103.115 576.547 101.408 576.547 99.232V75.616C576.547 73.44 575.971 71.7333 574.819 70.496C573.667 69.2587 572.024 68.64 569.891 68.64H556.131C555.747 68.64 555.555 68.8107 555.555 69.152V105.696C555.555 106.037 555.747 106.208 556.131 106.208ZM553.635 107.424V67.424C553.635 67.04 553.806 66.848 554.147 66.848H569.891C572.494 66.848 574.563 67.6373 576.099 69.216C577.678 70.7947 578.467 72.9067 578.467 75.552V99.296C578.467 101.941 577.678 104.053 576.099 105.632C574.563 107.211 572.494 108 569.891 108H554.147C553.806 108 553.635 107.808 553.635 107.424ZM589.323 99.296V96.736C589.323 96.352 589.493 96.16 589.835 96.16H590.731C591.072 96.16 591.243 96.352 591.243 96.736V99.232C591.243 101.408 591.819 103.115 592.97 104.352C594.123 105.589 595.765 106.208 597.899 106.208H605.579C607.712 106.208 609.355 105.589 610.507 104.352C611.659 103.115 612.235 101.408 612.235 99.232V96.032C612.235 94.0267 611.445 92.448 609.867 91.296C608.288 90.1013 606.368 89.248 604.107 88.736C601.888 88.1813 599.648 87.648 597.387 87.136C595.168 86.5813 593.269 85.6853 591.691 84.448C590.112 83.2107 589.323 81.5253 589.323 79.392V75.552C589.323 72.9067 590.091 70.7947 591.627 69.216C593.205 67.6373 595.296 66.848 597.899 66.848H605.579C608.181 66.848 610.251 67.6373 611.787 69.216C613.365 70.7947 614.155 72.9067 614.155 75.552V77.472C614.155 77.856 613.984 78.048 613.643 78.048H612.747C612.405 78.048 612.235 77.856 612.235 77.472V75.616C612.235 73.44 611.659 71.7333 610.507 70.496C609.355 69.2587 607.712 68.64 605.579 68.64H597.899C595.765 68.64 594.123 69.2587 592.97 70.496C591.819 71.7333 591.243 73.44 591.243 75.616V79.328C591.243 82.4853 593.931 84.6613 599.307 85.856C601.568 86.3253 603.808 86.8587 606.027 87.456C608.288 88.0107 610.208 88.992 611.787 90.4C613.365 91.7653 614.155 93.6 614.155 95.904V99.296C614.155 101.941 613.365 104.053 611.787 105.632C610.251 107.211 608.181 108 605.579 108H597.899C595.296 108 593.205 107.211 591.627 105.632C590.091 104.053 589.323 101.941 589.323 99.296Z" fill="black"/>
<path d="M100.117 99.9509L97.2174 97.0509C96.0174 103.051 90.7174 107.551 84.3174 107.551C77.0174 107.551 71.1174 101.651 71.1174 94.3509C71.1174 93.6509 71.2174 92.9509 71.3174 92.3509C70.7174 92.4509 70.0174 92.5509 69.4174 92.5509C62.1174 92.5509 56.2174 86.6509 56.2174 79.3509C56.2174 78.5509 56.3174 77.7509 56.4174 77.0509C55.9174 77.1509 55.4174 77.1509 54.9174 77.1509C47.6174 77.1509 41.7174 71.2509 41.7174 63.9509C41.7174 57.8509 45.8174 52.7509 51.4174 51.2509L36.2174 36.0509C36.2174 36.0509 9.11744 134.251 112.217 112.051L100.117 99.9509Z" fill="#F96B13"/>
<path d="M51.4174 51.2509L51.7174 51.5509L41.5174 35.3509C40.3174 33.5509 37.2174 33.4509 36.2174 35.6509C35.4174 37.9509 35.4174 39.4509 35.0174 41.2509L44.6174 55.6509C46.3174 53.5509 48.7174 51.9509 51.4174 51.2509Z" fill="#F96B13"/>
<path d="M113.017 106.851L97.2174 97.2509C96.6174 99.9509 95.2174 102.351 93.1174 104.251L105.917 112.051C104.717 113.651 110.417 112.551 112.217 112.051C114.217 111.751 115.517 108.651 113.017 106.851Z" fill="#F96B13"/>
<path d="M87.1174 76.6509C86.0174 69.1509 80.1174 63.0509 72.7174 61.6509C71.6174 52.7509 64.0174 45.9509 54.9174 45.9509C45.0174 45.9509 37.0174 53.9509 37.0174 63.8509C37.0174 72.6509 43.3174 79.9509 51.6174 81.4509C52.6174 89.3509 58.8174 95.7509 66.6174 96.9509C67.9174 105.551 75.4174 112.251 84.3174 112.251C94.2174 112.251 102.217 104.251 102.217 94.3509C102.217 85.4509 95.7174 78.0509 87.1174 76.6509ZM71.1174 94.3509C71.1174 93.6509 71.2174 92.9509 71.3174 92.3509C70.7174 92.4509 70.0174 92.5509 69.4174 92.5509C62.1174 92.5509 56.2174 86.6509 56.2174 79.3509C56.2174 78.5509 56.3174 77.7509 56.4174 77.0509C55.9174 77.1509 55.4174 77.1509 54.9174 77.1509C47.6174 77.1509 41.7174 71.2509 41.7174 63.9509C41.7174 56.6509 47.6174 50.7509 54.9174 50.7509C62.2174 50.7509 68.1174 56.6509 68.1174 63.9509C68.1174 64.7509 68.0174 65.5509 67.9174 66.2509C68.4174 66.1509 68.9174 66.1509 69.4174 66.1509C76.7174 66.1509 82.6174 72.0509 82.6174 79.3509C82.6174 80.0509 82.5174 80.7509 82.4174 81.3509C83.0174 81.2509 83.7174 81.1509 84.3174 81.1509C91.6174 81.1509 97.5174 87.0509 97.5174 94.3509C97.5174 101.651 91.6174 107.551 84.3174 107.551C77.0174 107.551 71.1174 101.651 71.1174 94.3509Z" fill="#F96B13"/>
</svg>
